<svg width="313" height="426" viewBox="0 0 313 426" fill="none" xmlns="http://www.w3.org/2000/svg">
<path fill-rule="evenodd" clip-rule="evenodd" d="M154.5 0C177.344 0 199.674 6.77395 218.668 19.4653C237.662 32.1566 252.466 50.1952 261.208 71.3C269.95 92.4049 272.237 115.628 267.781 138.033C263.324 160.438 252.324 181.018 236.171 197.171C220.018 213.324 199.438 224.324 177.033 228.781C154.628 233.237 131.405 230.95 110.3 222.208C89.1952 213.466 71.1566 198.662 58.4653 179.668C45.774 160.674 39 138.344 39 115.5C39 84.8675 51.1687 55.4896 72.8292 33.8292C94.4896 12.1687 123.867 0 154.5 0ZM72.1002 68.4083L110.485 30.0285L127.035 46.5787L88.6504 84.9518L72.1002 68.4083ZM69.7501 116.347L158.424 27.6784L174.974 44.2285L86.2936 132.897L69.7501 116.347ZM76.6681 155.025L197.762 33.9277L214.312 50.4779L93.2182 171.575L76.6681 155.025ZM99.4559 177.824L220.555 56.7239L237.105 73.274L116.003 194.371L99.4559 177.824ZM243.351 112.607L154.677 201.284L138.127 184.734L226.801 96.0602L243.351 112.607ZM241.001 160.549L202.618 198.932L186.068 182.382L224.449 144.001L241.001 160.549Z" fill="#0D2797"/>
<path d="M8.79955 317.252C8.75638 319.675 9.23566 322.08 10.2048 324.301C11.1739 326.523 12.6101 328.51 14.4158 330.127C17.9972 333.542 22.7759 335.416 27.7244 335.346H31.1917C33.9495 335.397 36.6163 334.359 38.6135 332.456C39.6095 331.554 40.4005 330.449 40.9333 329.215C41.466 327.982 41.7281 326.648 41.7018 325.305V270.555H45.4213V325.306C45.4596 327.144 45.1058 328.969 44.3833 330.66C43.6609 332.351 42.5865 333.868 41.2316 335.111C38.5405 337.706 34.9296 339.127 31.1917 339.062H27.7244C21.7707 339.164 16.0185 336.906 11.7247 332.78C9.56922 330.817 7.85804 328.416 6.7058 325.738C5.55355 323.059 4.98681 320.166 5.04355 317.251C5.04355 311.087 8.22168 305.958 14.5779 301.865C10.7267 306.049 8.65445 311.567 8.79955 317.252ZM58.8525 277.525C58.8525 273.239 58.5033 270.927 57.8049 270.59C60.9587 270.59 62.5356 272.697 62.5356 276.911V312.196C62.5258 313.102 62.738 313.998 63.1535 314.804C63.5691 315.609 64.1754 316.301 64.9197 316.819C66.4516 318.028 68.3498 318.677 70.3009 318.661H74.7428V322.344H70.3009C67.385 322.378 64.5536 321.365 62.3197 319.491C61.2152 318.628 60.3269 317.519 59.7251 316.253C59.1233 314.986 58.8245 313.598 58.8525 312.196V277.525ZM73.375 322.344V318.552H99.0864V322.344H73.375ZM99.0175 322.344V318.552H124.732V322.344H99.0175ZM161.823 307.862C161.85 309.957 161.379 312.028 160.45 313.905C159.521 315.782 158.16 317.412 156.478 318.661H170.562V322.344H121.734V318.66H145.931C149.05 318.682 152.074 317.586 154.455 315.572C155.636 314.666 156.591 313.498 157.243 312.16C157.895 310.822 158.226 309.35 158.211 307.861V304.972C158.235 303.085 157.82 301.219 156.999 299.52C156.178 297.822 154.973 296.337 153.48 295.184C150.487 292.642 146.681 291.258 142.754 291.283H135.056L131.95 287.564L138.885 282.327C139.342 281.942 140.051 281.413 141.012 280.738C145.298 277.656 147.441 275.357 147.441 273.84C147.448 273.627 147.398 273.415 147.296 273.226C147.91 274.086 148.273 275.098 148.344 276.152C148.352 276.961 148.166 277.76 147.802 278.482C147.409 279.239 146.937 279.952 146.394 280.61C145.791 281.346 145.133 282.034 144.425 282.669C143.691 283.331 142.944 283.957 142.186 284.547C141.427 285.138 140.705 285.691 140.018 286.209C139.332 286.726 138.736 287.178 138.231 287.564H142.746C147.663 287.494 152.429 289.265 156.108 292.528C157.931 294.042 159.39 295.946 160.378 298.1C161.366 300.253 161.857 302.602 161.815 304.971L161.823 307.862ZM169.045 322.344V318.552H194.759V322.344H169.045ZM194.688 322.344V318.552H220.402V322.344H194.688ZM256.19 316.349C253.591 320.346 249.475 322.344 243.841 322.344C241.95 322.289 240.094 321.821 238.404 320.972C236.46 320.072 234.767 318.708 233.475 317C232.447 318.704 230.956 320.082 229.176 320.972C227.411 321.877 225.455 322.348 223.471 322.344H218.956V318.66H223.471C225.392 318.669 227.261 318.034 228.778 316.855C229.526 316.331 230.134 315.633 230.549 314.82C230.965 314.008 231.175 313.106 231.162 312.194V307.318H234.918V310.135C234.897 311.313 235.15 312.479 235.657 313.542C236.165 314.604 236.914 315.534 237.844 316.257C239.731 317.837 242.123 318.69 244.584 318.66C247.056 318.683 249.456 317.826 251.353 316.241C252.287 315.524 253.042 314.599 253.555 313.539C254.069 312.48 254.328 311.315 254.311 310.137V304.684H258.067V310.137C258.046 311.316 258.302 312.484 258.813 313.547C259.324 314.61 260.077 315.539 261.011 316.259C262.913 317.839 265.315 318.69 267.787 318.66C270.256 318.69 272.653 317.832 274.541 316.241C275.468 315.519 276.214 314.592 276.722 313.533C277.229 312.474 277.484 311.311 277.466 310.137V302.3H281.259V310.137C281.295 311.807 280.951 313.464 280.253 314.982C279.555 316.5 278.521 317.839 277.229 318.899C274.625 321.168 271.275 322.394 267.822 322.344C264.385 322.401 261.051 321.178 258.466 318.913C257.597 318.164 256.832 317.301 256.192 316.349H256.19ZM249.726 297.713V293.885H253.41V297.713H249.726ZM258.899 297.713V293.885H262.583V297.713H258.899ZM254.311 292.007V288.179H257.995V292.006L254.311 292.007ZM297.544 315.338C297.544 319.744 297.894 322.055 298.592 322.272C297.577 322.341 296.57 322.044 295.755 321.434C294.94 320.824 294.371 319.943 294.15 318.949C293.955 318.257 293.858 317.54 293.861 316.821V270.555H297.545L297.544 315.338ZM294.186 265.137C291.513 265.137 290.032 265.45 289.744 266.076C289.7 265.322 289.893 264.572 290.294 263.932C290.695 263.291 291.285 262.791 291.983 262.501C292.47 262.277 293.001 262.166 293.536 262.175H294.402C293.899 261.35 293.648 260.396 293.68 259.431C293.655 258.464 293.848 257.504 294.245 256.622C294.642 255.741 295.233 254.96 295.973 254.338C297.463 253.028 299.388 252.32 301.372 252.352V255.277C300.337 255.215 299.309 255.494 298.447 256.072C297.894 256.43 297.436 256.915 297.109 257.487C296.782 258.059 296.597 258.701 296.569 259.359C296.544 260.996 297.616 261.911 299.783 262.103C300.36 262.151 300.89 262.175 301.371 262.175V265.137H294.186Z" fill="#0D2797"/>
<path d="M24.2969 371.477C24.7135 370.721 25.0391 370.201 25.2734 369.914C25.5078 369.628 25.8594 369.484 26.3281 369.484C26.6927 369.484 27.0052 369.628 27.2656 369.914C27.5521 370.174 27.9167 370.695 28.3594 371.477L49.9219 410.383C50.2083 410.904 50.3516 411.411 50.3516 411.906C50.3516 412.375 50.2214 412.74 49.9609 413C49.7005 413.26 49.388 413.391 49.0234 413.391C48.6589 413.391 48.2943 413.26 47.9297 413C47.5911 412.766 47.2396 412.323 46.875 411.672L40.2344 399.641H12.4219L5.70312 411.828C5.41667 412.375 5.07812 412.766 4.6875 413C4.32292 413.26 3.95833 413.391 3.59375 413.391C3.15104 413.391 2.82552 413.234 2.61719 412.922C2.40885 412.609 2.30469 412.193 2.30469 411.672C2.30469 411.464 2.34375 411.255 2.42188 411.047C2.52604 410.839 2.64323 410.604 2.77344 410.344L24.2969 371.477ZM39.1016 397.336L26.3281 374.016L13.5547 397.336H39.1016ZM108.477 400.852C108.477 402.518 108.177 404.003 107.578 405.305C106.979 406.581 106.146 407.701 105.078 408.664C104.01 409.602 102.734 410.409 101.25 411.086C99.7917 411.737 98.2031 412.271 96.4844 412.688C94.7656 413.078 92.9297 413.352 90.9766 413.508C89.0495 413.69 87.0964 413.781 85.1172 413.781C82.3307 413.781 79.5573 413.638 76.7969 413.352C74.0365 413.065 71.4583 412.714 69.0625 412.297C66.6667 411.854 64.5443 411.385 62.6953 410.891C60.8724 410.396 59.4922 409.927 58.5547 409.484C58.1901 409.302 57.9167 409.081 57.7344 408.82C57.5781 408.534 57.5 408.247 57.5 407.961C57.5 407.648 57.5781 407.388 57.7344 407.18C57.9167 406.945 58.1771 406.828 58.5156 406.828C58.6719 406.828 58.8542 406.867 59.0625 406.945C60.0781 407.362 61.5365 407.818 63.4375 408.312C65.3385 408.807 67.487 409.276 69.8828 409.719C72.3047 410.135 74.8698 410.487 77.5781 410.773C80.3125 411.06 83.0208 411.203 85.7031 411.203C88.3073 411.203 90.7812 411.034 93.125 410.695C95.4688 410.357 97.526 409.784 99.2969 408.977C101.094 408.169 102.513 407.102 103.555 405.773C104.622 404.445 105.156 402.805 105.156 400.852C105.156 399.211 104.701 397.87 103.789 396.828C102.904 395.76 101.693 394.914 100.156 394.289C98.6198 393.638 96.8229 393.156 94.7656 392.844C92.7083 392.505 90.5208 392.258 88.2031 392.102C85.9115 391.919 83.5417 391.789 81.0938 391.711C78.6458 391.607 76.263 391.451 73.9453 391.242C71.6536 391.034 69.4792 390.734 67.4219 390.344C65.3646 389.953 63.5677 389.38 62.0312 388.625C60.4948 387.87 59.2708 386.893 58.3594 385.695C57.474 384.497 57.0312 382.987 57.0312 381.164C57.0312 379.497 57.3438 378.026 57.9688 376.75C58.5938 375.474 59.4531 374.38 60.5469 373.469C61.6406 372.531 62.9297 371.763 64.4141 371.164C65.9245 370.539 67.5521 370.044 69.2969 369.68C71.0677 369.315 72.9167 369.055 74.8438 368.898C76.7969 368.742 78.75 368.664 80.7031 368.664C83.125 368.664 85.5078 368.781 87.8516 369.016C90.1953 369.224 92.3958 369.523 94.4531 369.914C96.5104 370.279 98.3594 370.695 100 371.164C101.641 371.607 102.956 372.062 103.945 372.531C104.154 372.635 104.31 372.792 104.414 373C104.518 373.182 104.57 373.378 104.57 373.586C104.57 373.951 104.44 374.289 104.18 374.602C103.945 374.914 103.607 375.07 103.164 375.07C102.904 375.07 102.682 375.018 102.5 374.914C101.12 374.341 99.5833 373.833 97.8906 373.391C96.224 372.922 94.4531 372.531 92.5781 372.219C90.7031 371.906 88.763 371.672 86.7578 371.516C84.7786 371.333 82.8125 371.242 80.8594 371.242C78.151 371.242 75.5599 371.398 73.0859 371.711C70.612 372.023 68.4245 372.557 66.5234 373.312C64.6484 374.042 63.151 375.031 62.0312 376.281C60.9115 377.505 60.3516 379.055 60.3516 380.93C60.3516 382.362 60.7943 383.534 61.6797 384.445C62.5911 385.331 63.8151 386.047 65.3516 386.594C66.888 387.141 68.6849 387.557 70.7422 387.844C72.7995 388.104 74.974 388.312 77.2656 388.469C79.5833 388.625 81.9661 388.768 84.4141 388.898C86.862 389.003 89.2318 389.198 91.5234 389.484C93.8411 389.745 96.0286 390.122 98.0859 390.617C100.143 391.086 101.94 391.75 103.477 392.609C105.013 393.469 106.224 394.576 107.109 395.93C108.021 397.258 108.477 398.898 108.477 400.852ZM119.102 372.219C119.102 371.88 119.115 371.555 119.141 371.242C119.193 370.904 119.284 370.604 119.414 370.344C119.57 370.083 119.766 369.875 120 369.719C120.26 369.562 120.586 369.484 120.977 369.484C121.263 369.484 121.497 369.576 121.68 369.758C121.862 369.914 122.005 370.122 122.109 370.383C122.24 370.643 122.318 370.943 122.344 371.281C122.396 371.594 122.422 371.906 122.422 372.219V389.328H156.992V372.219C156.992 371.88 157.005 371.555 157.031 371.242C157.057 370.904 157.122 370.604 157.227 370.344C157.357 370.083 157.526 369.875 157.734 369.719C157.943 369.562 158.242 369.484 158.633 369.484C159.023 369.484 159.323 369.562 159.531 369.719C159.766 369.875 159.935 370.083 160.039 370.344C160.169 370.604 160.247 370.904 160.273 371.242C160.299 371.555 160.312 371.88 160.312 372.219V410.266C160.312 410.604 160.299 410.943 160.273 411.281C160.247 411.594 160.169 411.88 160.039 412.141C159.935 412.401 159.779 412.609 159.57 412.766C159.362 412.922 159.062 413 158.672 413C158.281 413 157.969 412.922 157.734 412.766C157.526 412.609 157.357 412.401 157.227 412.141C157.122 411.88 157.057 411.594 157.031 411.281C157.005 410.943 156.992 410.604 156.992 410.266V391.75H122.422V410.266C122.422 410.578 122.396 410.904 122.344 411.242C122.292 411.555 122.201 411.841 122.07 412.102C121.966 412.362 121.81 412.583 121.602 412.766C121.419 412.922 121.185 413 120.898 413C120.508 413 120.182 412.922 119.922 412.766C119.688 412.609 119.505 412.401 119.375 412.141C119.271 411.88 119.193 411.594 119.141 411.281C119.115 410.943 119.102 410.604 119.102 410.266V372.219ZM186.719 388.742L209.492 409.992C210.013 410.461 210.273 410.982 210.273 411.555C210.273 411.945 210.143 412.284 209.883 412.57C209.622 412.857 209.297 413 208.906 413C208.464 413 208.034 412.805 207.617 412.414L184.258 390.344L176.172 395.656V410.266C176.172 411.021 176.055 411.672 175.82 412.219C175.586 412.74 175.156 413 174.531 413C173.776 413 173.294 412.74 173.086 412.219C172.904 411.672 172.812 411.047 172.812 410.344V372.062C172.812 371.307 172.917 370.695 173.125 370.227C173.359 369.732 173.854 369.484 174.609 369.484C175.234 369.484 175.651 369.732 175.859 370.227C176.068 370.721 176.172 371.307 176.172 371.984V392.531L207.461 370.07C207.747 369.862 208.021 369.719 208.281 369.641C208.568 369.536 208.815 369.484 209.023 369.484C209.44 369.484 209.753 369.602 209.961 369.836C210.195 370.07 210.312 370.37 210.312 370.734C210.312 371.307 210.026 371.802 209.453 372.219L186.719 388.742ZM238.906 371.477C239.323 370.721 239.648 370.201 239.883 369.914C240.117 369.628 240.469 369.484 240.938 369.484C241.302 369.484 241.615 369.628 241.875 369.914C242.161 370.174 242.526 370.695 242.969 371.477L264.531 410.383C264.818 410.904 264.961 411.411 264.961 411.906C264.961 412.375 264.831 412.74 264.57 413C264.31 413.26 263.997 413.391 263.633 413.391C263.268 413.391 262.904 413.26 262.539 413C262.201 412.766 261.849 412.323 261.484 411.672L254.844 399.641H227.031L220.312 411.828C220.026 412.375 219.688 412.766 219.297 413C218.932 413.26 218.568 413.391 218.203 413.391C217.76 413.391 217.435 413.234 217.227 412.922C217.018 412.609 216.914 412.193 216.914 411.672C216.914 411.464 216.953 411.255 217.031 411.047C217.135 410.839 217.253 410.604 217.383 410.344L238.906 371.477ZM253.711 397.336L240.938 374.016L228.164 397.336H253.711ZM275.195 413C274.805 413 274.492 412.987 274.258 412.961C274.049 412.935 273.893 412.883 273.789 412.805C273.685 412.701 273.62 412.557 273.594 412.375C273.594 412.167 273.594 411.893 273.594 411.555V372.023C273.594 371.346 273.711 370.76 273.945 370.266C274.18 369.745 274.674 369.484 275.43 369.484C276.055 369.484 276.458 369.758 276.641 370.305C276.823 370.826 276.914 371.398 276.914 372.023V410.422H310.469C310.99 410.422 311.38 410.565 311.641 410.852C311.927 411.112 312.07 411.398 312.07 411.711C312.07 412.049 311.927 412.349 311.641 412.609C311.38 412.87 310.99 413 310.469 413H275.195Z" fill="#0D2797"/>
</svg>
